M48
INCH,TZ
T1C0.016
T2C0.024
T3C0.031
T4C0.032
T5C0.032
T6C0.035
T7C0.039
T8C0.039
T9C0.039
T10C0.040
T11C0.043
T12C0.047
T13C0.047
T14C0.050
T15C0.051
T16C0.063
T17C0.071
T18C0.079
%
G90
G05
T1
X21900Y-40100
X29077Y-36027
X29077Y-36527
X29077Y-37027
X32577Y-30627
X32927Y-29077
X38877Y-31227
X39727Y-38177
X39877Y-37577
X47677Y-38277
X50976Y-36846
X53427Y-21577
X53927Y-23077
X54777Y-26727
X54927Y-20827
X55677Y-26477
X62700Y-15300
X66000Y-15300
T2
X39677Y-25077
X39677Y-25577
X39677Y-26077
X39677Y-27577
X39677Y-28077
X39677Y-28577
X61050Y-19804
X61550Y-19804
X62050Y-19804
X64880Y-14463
X64880Y-16096
T3
X21927Y-48827
X21927Y-49827
X21927Y-50827
X21927Y-51827
X21927Y-52827
X21927Y-53827
X21927Y-54827
X21927Y-55827
X24177Y-28108
X24177Y-30077
X24677Y-31577
X24677Y-33327
X24927Y-48827
X24927Y-49827
X24927Y-50827
X24927Y-51827
X24927Y-52827
X24927Y-53827
X24927Y-54827
X24927Y-55827
X27016Y-16661
X27627Y-57927
X27627Y-59895
X28177Y-20827
X28177Y-22795
X28177Y-24577
X28177Y-25577
X28177Y-26577
X28177Y-27577
X28177Y-28577
X28177Y-29577
X28177Y-30577
X28177Y-31577
X28177Y-32577
X28177Y-33577
X28177Y-34577
X28177Y-35577
X28177Y-36577
X28177Y-37577
X28984Y-16661
X30280Y-14170
X30600Y-58300
X31177Y-24577
X31177Y-25577
X31177Y-26577
X31177Y-27577
X31177Y-28577
X31177Y-29577
X31177Y-30577
X31177Y-31577
X31177Y-32577
X31177Y-33577
X31177Y-34577
X31177Y-35577
X31177Y-36577
X31177Y-37577
X32535Y-27555
X32551Y-26063
X33709Y-28827
X34280Y-14170
X34727Y-36877
X35130Y-14180
X35200Y-58300
X35677Y-28827
X36535Y-27555
X36551Y-26063
X36696Y-36877
X37728Y-24831
X37728Y-28831
X37977Y-31908
X37977Y-33877
X37977Y-34908
X37977Y-36877
X38077Y-57977
X38077Y-59945
X39130Y-14180
X40177Y-30077
X42146Y-30077
X43650Y-27454
X43650Y-28454
X43650Y-29454
X43650Y-30454
X43650Y-31454
X43650Y-32454
X43650Y-33454
X45520Y-22900
X45540Y-21620
X46650Y-27454
X46650Y-28454
X46650Y-29454
X46650Y-30454
X46650Y-31454
X46650Y-32454
X46650Y-33454
X49520Y-22900
X49540Y-21620
X50077Y-17493
X50077Y-18477
X50650Y-33704
X50759Y-24027
X52527Y-17493
X52527Y-18477
X52618Y-33704
X52727Y-24027
X53900Y-27204
X54118Y-60087
X54320Y-55018
X54320Y-59018
X55375Y-55238
X55390Y-56502
X55868Y-27204
X56531Y-45100
X56606Y-34354
X56606Y-36323
X57650Y-25804
X57681Y-21604
X58118Y-60087
X58500Y-45100
X59180Y-57781
X59180Y-59750
X59375Y-55238
X59390Y-56502
X59618Y-25804
X59650Y-21604
X59800Y-43900
X60402Y-55201
X60700Y-38300
X60700Y-42300
X60823Y-45217
X60823Y-48217
X61823Y-45217
X61823Y-48217
X61900Y-38600
X61910Y-42210
X61930Y-40410
X62370Y-35232
X62823Y-45217
X62823Y-48217
X62894Y-42210
X62914Y-40410
X63823Y-45217
X63823Y-48217
X64339Y-35232
X64402Y-55201
X64650Y-20235
X64650Y-22204
X66094Y-33437
X66094Y-37437
T4
X24677Y-32561
X24677Y-34311
X30600Y-59284
X35200Y-59284
X60784Y-43900
X62884Y-38600
T5
X21927Y-59077
X22927Y-59077
X23927Y-59077
T6
X65768Y-54984
X65768Y-55984
T7
X19677Y-34055
X19677Y-35827
X19677Y-38055
X19677Y-39827
T8
X65768Y-45728
X65768Y-46728
X65768Y-47728
T9
X19709Y-28803
X19709Y-29803
X19709Y-30795
X19709Y-31795
X21177Y-43327
X21427Y-28327
X21427Y-32327
X22701Y-28346
X22701Y-32346
X25177Y-43327
X28427Y-19577
X30220Y-15420
X30220Y-16610
X32427Y-19577
X32427Y-20827
X32427Y-24827
X32727Y-31877
X32727Y-33127
X32727Y-34377
X32727Y-35627
X33677Y-20827
X33677Y-24827
X34220Y-15420
X34220Y-16610
X35200Y-15430
X35200Y-16610
X36727Y-31877
X36727Y-33127
X36727Y-34377
X36727Y-35627
X39200Y-15430
X39200Y-16610
X39877Y-31477
X39877Y-35477
X41127Y-31477
X41127Y-35477
X41150Y-24204
X41150Y-28204
X42377Y-31477
X42377Y-35477
X42400Y-24204
X42400Y-28204
X43640Y-24220
X43650Y-25454
X47640Y-24220
X47650Y-25454
X48150Y-28454
X48150Y-32454
X48650Y-25454
X48650Y-26954
X49227Y-15226
X49650Y-28454
X49650Y-32454
X51150Y-28454
X51150Y-32454
X52650Y-25454
X52650Y-26954
X52650Y-28454
X52650Y-32454
X53227Y-16328
X54150Y-28454
X54150Y-32454
X55220Y-47886
X55224Y-48961
X55224Y-50028
X55400Y-28454
X55400Y-32454
X56650Y-28454
X56650Y-32454
X57650Y-28454
X57650Y-32454
X58650Y-28454
X58650Y-32454
X59220Y-47886
X59224Y-48961
X59224Y-50028
X59650Y-28454
X59650Y-32454
X60650Y-28454
X60650Y-32454
X60927Y-18077
X61650Y-28454
X61650Y-32454
X61800Y-43900
X62650Y-28454
X62650Y-32454
X63650Y-28454
X63650Y-32454
X64650Y-28454
X64650Y-32454
X64927Y-18077
X65650Y-28454
X65650Y-32454
X65800Y-43900
T10
X19677Y-41827
X19677Y-42827
X19677Y-43827
X19677Y-44827
X19677Y-45827
X19677Y-46827
X19677Y-47827
X19677Y-48827
X19677Y-49827
X19677Y-50827
X19677Y-51827
X19677Y-52827
X19677Y-53827
X19677Y-54827
X19677Y-55827
X19677Y-56827
X23000Y-14900
X23977Y-44727
X23977Y-45727
X23977Y-46727
X24000Y-14900
X24977Y-44727
X24977Y-45727
X24977Y-46727
X25000Y-14900
X26000Y-14900
X27000Y-14900
X28000Y-14900
X35177Y-21077
X35177Y-22077
X35177Y-23077
X35177Y-24077
T11
X62713Y-23248
X62713Y-27248
T12
X26427Y-32116
X26427Y-34038
X64104Y-38828
X64104Y-40009
X64104Y-41191
X64104Y-42372
X64154Y-24326
X64154Y-25704
X64154Y-27082
X65285Y-39419
X65285Y-40600
X65285Y-41781
X65335Y-24995
X65335Y-26413
T13
X61400Y-21204
X61400Y-27204
T14
X49227Y-16328
X53227Y-15226
X61100Y-49560
X61100Y-51560
X61100Y-53560
X66100Y-50560
X66100Y-52560
T15
X20657Y-33559
X20657Y-36319
X20657Y-37559
X20657Y-40319
T16
X19675Y-16750
X19675Y-17750
X19675Y-18750
X19677Y-23827
X19677Y-24827
X19677Y-25827
T17
X27201Y-42913
X27235Y-53043
X30201Y-41913
X30201Y-43913
X30235Y-52043
X30235Y-54043
X49584Y-41913
X49584Y-43913
X49618Y-52043
X49618Y-54043
X52584Y-42913
X52618Y-53043
T18
X56427Y-18327
X59177Y-18327
T8
X61300Y-59244G85X61300Y-58456
G05
X62875Y-57000G85X62087Y-57000
G05
X63662Y-59244G85X63662Y-58456
G05
T0
M30
