G04 #@! TF.FileFunction,Legend,Bot*
%FSLAX46Y46*%
G04 Gerber Fmt 4.6, Leading zero omitted, Abs format (unit mm)*
G04 Created by KiCad (PCBNEW 4.0.3-stable) date 05/08/17 18:59:47*
%MOMM*%
%LPD*%
G01*
G04 APERTURE LIST*
%ADD10C,0.100000*%
%ADD11C,0.300000*%
G04 APERTURE END LIST*
D10*
D11*
X48428572Y-35548571D02*
X48428572Y-34048571D01*
X49000000Y-34048571D01*
X49142858Y-34120000D01*
X49214286Y-34191429D01*
X49285715Y-34334286D01*
X49285715Y-34548571D01*
X49214286Y-34691429D01*
X49142858Y-34762857D01*
X49000000Y-34834286D01*
X48428572Y-34834286D01*
X50785715Y-35405714D02*
X50714286Y-35477143D01*
X50500000Y-35548571D01*
X50357143Y-35548571D01*
X50142858Y-35477143D01*
X50000000Y-35334286D01*
X49928572Y-35191429D01*
X49857143Y-34905714D01*
X49857143Y-34691429D01*
X49928572Y-34405714D01*
X50000000Y-34262857D01*
X50142858Y-34120000D01*
X50357143Y-34048571D01*
X50500000Y-34048571D01*
X50714286Y-34120000D01*
X50785715Y-34191429D01*
X51928572Y-34762857D02*
X52142858Y-34834286D01*
X52214286Y-34905714D01*
X52285715Y-35048571D01*
X52285715Y-35262857D01*
X52214286Y-35405714D01*
X52142858Y-35477143D01*
X52000000Y-35548571D01*
X51428572Y-35548571D01*
X51428572Y-34048571D01*
X51928572Y-34048571D01*
X52071429Y-34120000D01*
X52142858Y-34191429D01*
X52214286Y-34334286D01*
X52214286Y-34477143D01*
X52142858Y-34620000D01*
X52071429Y-34691429D01*
X51928572Y-34762857D01*
X51428572Y-34762857D01*
X52571429Y-35691429D02*
X53714286Y-35691429D01*
X53857143Y-34048571D02*
X54357143Y-35548571D01*
X54857143Y-34048571D01*
X55214286Y-34048571D02*
X56142857Y-34048571D01*
X55642857Y-34620000D01*
X55857143Y-34620000D01*
X56000000Y-34691429D01*
X56071429Y-34762857D01*
X56142857Y-34905714D01*
X56142857Y-35262857D01*
X56071429Y-35405714D01*
X56000000Y-35477143D01*
X55857143Y-35548571D01*
X55428571Y-35548571D01*
X55285714Y-35477143D01*
X55214286Y-35405714D01*
M02*
